<svg width="102" height="15" viewBox="0 0 102 15" fill="none" xmlns="http://www.w3.org/2000/svg">
<path d="M5.14286 6.28563C5.14286 6.13384 5.08036 5.99098 4.97321 5.88384L0.973214 1.88384C0.866071 1.7767 0.723214 1.7142 0.571429 1.7142C0.258929 1.7142 0 1.97313 0 2.28563V10.2856C0 10.5981 0.258929 10.8571 0.571429 10.8571C0.723214 10.8571 0.866071 10.7946 0.973214 10.6874L4.97321 6.68741C5.08036 6.58027 5.14286 6.43741 5.14286 6.28563Z" fill="#D4D6D4"/>
<path d="M20.97 11.9999L18.634 7.75991H17.978V11.9999H15.242V0.767912H19.834C20.7193 0.767912 21.4713 0.922578 22.09 1.23191C22.7193 1.54124 23.1887 1.96791 23.498 2.51191C23.8073 3.04524 23.962 3.64258 23.962 4.30391C23.962 5.05058 23.7487 5.71725 23.322 6.30391C22.906 6.89058 22.2873 7.30658 21.466 7.55191L24.058 11.9999H20.97ZM17.978 5.82391H19.674C20.1753 5.82391 20.5487 5.70124 20.794 5.45591C21.05 5.21058 21.178 4.86391 21.178 4.41591C21.178 3.98925 21.05 3.65325 20.794 3.40791C20.5487 3.16258 20.1753 3.03991 19.674 3.03991H17.978V5.82391Z" fill="#D4D6D4"/>
<path d="M34.0955 7.39191C34.0955 7.64791 34.0795 7.91458 34.0475 8.19191H27.8555C27.8982 8.74658 28.0742 9.17325 28.3835 9.47191C28.7035 9.75991 29.0928 9.90391 29.5515 9.90391C30.2342 9.90391 30.7088 9.61591 30.9755 9.03991H33.8875C33.7382 9.62658 33.4662 10.1546 33.0715 10.6239C32.6875 11.0932 32.2022 11.4612 31.6155 11.7279C31.0288 11.9946 30.3728 12.1279 29.6475 12.1279C28.7728 12.1279 27.9942 11.9412 27.3115 11.5679C26.6288 11.1946 26.0955 10.6612 25.7115 9.96791C25.3275 9.27458 25.1355 8.46391 25.1355 7.53591C25.1355 6.60791 25.3222 5.79725 25.6955 5.10391C26.0795 4.41058 26.6128 3.87725 27.2955 3.50391C27.9782 3.13058 28.7622 2.94391 29.6475 2.94391C30.5115 2.94391 31.2795 3.12525 31.9515 3.48791C32.6235 3.85058 33.1462 4.36791 33.5195 5.03991C33.9035 5.71191 34.0955 6.49591 34.0955 7.39191ZM31.2955 6.67191C31.2955 6.20258 31.1355 5.82925 30.8155 5.55191C30.4955 5.27458 30.0955 5.13591 29.6155 5.13591C29.1568 5.13591 28.7675 5.26924 28.4475 5.53591C28.1382 5.80258 27.9462 6.18125 27.8715 6.67191H31.2955Z" fill="#D4D6D4"/>
<path d="M34.9949 7.51991C34.9949 6.60258 35.1655 5.79725 35.5069 5.10391C35.8589 4.41058 36.3335 3.87725 36.9309 3.50391C37.5282 3.13058 38.1949 2.94391 38.9309 2.94391C39.5602 2.94391 40.1095 3.07191 40.5789 3.32791C41.0589 3.58391 41.4269 3.91991 41.6829 4.33591V3.07191H44.4189V11.9999H41.6829V10.7359C41.4162 11.1519 41.0429 11.4879 40.5629 11.7439C40.0935 11.9999 39.5442 12.1279 38.9149 12.1279C38.1895 12.1279 37.5282 11.9412 36.9309 11.5679C36.3335 11.1839 35.8589 10.6452 35.5069 9.95191C35.1655 9.24791 34.9949 8.43725 34.9949 7.51991ZM41.6829 7.53591C41.6829 6.85324 41.4909 6.31458 41.1069 5.91991C40.7335 5.52525 40.2749 5.32791 39.7309 5.32791C39.1869 5.32791 38.7229 5.52525 38.3389 5.91991C37.9655 6.30391 37.7789 6.83725 37.7789 7.51991C37.7789 8.20258 37.9655 8.74658 38.3389 9.15191C38.7229 9.54658 39.1869 9.74391 39.7309 9.74391C40.2749 9.74391 40.7335 9.54658 41.1069 9.15191C41.4909 8.75725 41.6829 8.21858 41.6829 7.53591Z" fill="#D4D6D4"/>
<path d="M45.8543 7.51991C45.8543 6.60258 46.0249 5.79725 46.3662 5.10391C46.7182 4.41058 47.1929 3.87725 47.7902 3.50391C48.3876 3.13058 49.0542 2.94391 49.7902 2.94391C50.3769 2.94391 50.9103 3.06658 51.3903 3.31191C51.8809 3.55724 52.2649 3.88791 52.5423 4.30391V0.159912H55.2783V11.9999H52.5423V10.7199C52.2863 11.1466 51.9183 11.4879 51.4383 11.7439C50.9689 11.9999 50.4196 12.1279 49.7902 12.1279C49.0542 12.1279 48.3876 11.9412 47.7902 11.5679C47.1929 11.1839 46.7182 10.6452 46.3662 9.95191C46.0249 9.24791 45.8543 8.43725 45.8543 7.51991ZM52.5423 7.53591C52.5423 6.85324 52.3503 6.31458 51.9663 5.91991C51.5929 5.52525 51.1342 5.32791 50.5902 5.32791C50.0462 5.32791 49.5822 5.52525 49.1982 5.91991C48.8249 6.30391 48.6382 6.83725 48.6382 7.51991C48.6382 8.20258 48.8249 8.74658 49.1982 9.15191C49.5822 9.54658 50.0462 9.74391 50.5902 9.74391C51.1342 9.74391 51.5929 9.54658 51.9663 9.15191C52.3503 8.75725 52.5423 8.21858 52.5423 7.53591Z" fill="#D4D6D4"/>
<path d="M73.3682 0.767912V11.9999H70.6322V5.26391L68.1203 11.9999H65.9122L63.3843 5.24791V11.9999H60.6483V0.767912H63.8802L67.0322 8.54391L70.1523 0.767912H73.3682Z" fill="#D4D6D4"/>
<path d="M79.3997 12.1279C78.5251 12.1279 77.7358 11.9412 77.0318 11.5679C76.3384 11.1946 75.7891 10.6612 75.3838 9.96791C74.9891 9.27458 74.7917 8.46391 74.7917 7.53591C74.7917 6.61858 74.9944 5.81325 75.3997 5.11991C75.8051 4.41591 76.3598 3.87725 77.0638 3.50391C77.7678 3.13058 78.5571 2.94391 79.4317 2.94391C80.3064 2.94391 81.0958 3.13058 81.7998 3.50391C82.5038 3.87725 83.0584 4.41591 83.4638 5.11991C83.8691 5.81325 84.0717 6.61858 84.0717 7.53591C84.0717 8.45324 83.8638 9.26391 83.4478 9.96791C83.0424 10.6612 82.4824 11.1946 81.7678 11.5679C81.0638 11.9412 80.2744 12.1279 79.3997 12.1279ZM79.3997 9.75991C79.9224 9.75991 80.3651 9.56791 80.7278 9.18391C81.1011 8.79991 81.2878 8.25058 81.2878 7.53591C81.2878 6.82124 81.1064 6.27191 80.7438 5.88791C80.3918 5.50391 79.9544 5.31191 79.4317 5.31191C78.8984 5.31191 78.4558 5.50391 78.1038 5.88791C77.7518 6.26125 77.5758 6.81058 77.5758 7.53591C77.5758 8.25058 77.7464 8.79991 78.0878 9.18391C78.4398 9.56791 78.8771 9.75991 79.3997 9.75991Z" fill="#D4D6D4"/>
<path d="M88.2592 4.55991C88.5792 4.06925 88.9793 3.68525 89.4593 3.40791C89.9393 3.11991 90.4726 2.97591 91.0592 2.97591V5.87191H90.3073C89.6246 5.87191 89.1126 6.02125 88.7712 6.31991C88.4299 6.60791 88.2592 7.11991 88.2592 7.85591V11.9999H85.5232V3.07191H88.2592V4.55991Z" fill="#D4D6D4"/>
<path d="M100.783 7.39191C100.783 7.64791 100.767 7.91458 100.735 8.19191H94.543C94.5857 8.74658 94.7617 9.17325 95.071 9.47191C95.391 9.75991 95.7803 9.90391 96.239 9.90391C96.9217 9.90391 97.3963 9.61591 97.663 9.03991H100.575C100.426 9.62658 100.154 10.1546 99.759 10.6239C99.375 11.0932 98.8897 11.4612 98.303 11.7279C97.7163 11.9946 97.0603 12.1279 96.335 12.1279C95.4603 12.1279 94.6817 11.9412 93.999 11.5679C93.3163 11.1946 92.783 10.6612 92.399 9.96791C92.015 9.27458 91.823 8.46391 91.823 7.53591C91.823 6.60791 92.0097 5.79725 92.383 5.10391C92.767 4.41058 93.3003 3.87725 93.983 3.50391C94.6657 3.13058 95.4497 2.94391 96.335 2.94391C97.199 2.94391 97.967 3.12525 98.639 3.48791C99.311 3.85058 99.8337 4.36791 100.207 5.03991C100.591 5.71191 100.783 6.49591 100.783 7.39191ZM97.983 6.67191C97.983 6.20258 97.823 5.82925 97.503 5.55191C97.183 5.27458 96.783 5.13591 96.303 5.13591C95.8443 5.13591 95.455 5.26924 95.135 5.53591C94.8257 5.80258 94.6337 6.18125 94.559 6.67191H97.983Z" fill="#D4D6D4"/>
<path d="M5.71875 13.5999H14.2564V14.3999H5.71875V13.5999Z" fill="#D4D6D4"/>
<path d="M14.25 13.5999H101.231V14.3999H14.25V13.5999Z" fill="#D4D6D4"/>
</svg>
