<svg width="114" height="16" viewBox="0 0 114 16" fill="none" xmlns="http://www.w3.org/2000/svg">
<path d="M5.14286 7.28568C5.14286 7.13389 5.08036 6.99103 4.97321 6.88389L0.973214 2.88389C0.866071 2.77675 0.723214 2.71425 0.571429 2.71425C0.258929 2.71425 0 2.97318 0 3.28568V11.2857C0 11.5982 0.258929 11.8571 0.571429 11.8571C0.723214 11.8571 0.866071 11.7946 0.973214 11.6875L4.97321 7.68746C5.08036 7.58032 5.14286 7.43746 5.14286 7.28568Z" fill="#FFD723"/>
<path d="M22.698 5.31996C22.4953 4.94663 22.202 4.66396 21.818 4.47196C21.4447 4.26929 21.002 4.16796 20.49 4.16796C19.6047 4.16796 18.8953 4.46129 18.362 5.04796C17.8287 5.62396 17.562 6.39729 17.562 7.36796C17.562 8.40263 17.8393 9.21329 18.394 9.79996C18.9593 10.376 19.7327 10.664 20.714 10.664C21.386 10.664 21.9513 10.4933 22.41 10.152C22.8793 9.81063 23.2207 9.31996 23.434 8.67996H19.962V6.66396H25.914V9.20796C25.7113 9.89063 25.3647 10.5253 24.874 11.112C24.394 11.6986 23.7807 12.1733 23.034 12.536C22.2873 12.8986 21.4447 13.08 20.506 13.08C19.3967 13.08 18.4047 12.84 17.53 12.36C16.666 11.8693 15.9887 11.192 15.498 10.328C15.018 9.46396 14.778 8.47729 14.778 7.36796C14.778 6.25863 15.018 5.27196 15.498 4.40796C15.9887 3.53329 16.666 2.85596 17.53 2.37596C18.394 1.88529 19.3807 1.63996 20.49 1.63996C21.834 1.63996 22.9647 1.96529 23.882 2.61596C24.81 3.26663 25.4233 4.16796 25.722 5.31996H22.698Z" fill="#FFD723"/>
<path d="M35.8455 8.39196C35.8455 8.64796 35.8295 8.91463 35.7975 9.19196H29.6055C29.6482 9.74663 29.8242 10.1733 30.1335 10.472C30.4535 10.76 30.8428 10.904 31.3015 10.904C31.9842 10.904 32.4588 10.616 32.7255 10.04H35.6375C35.4882 10.6266 35.2162 11.1546 34.8215 11.624C34.4375 12.0933 33.9522 12.4613 33.3655 12.728C32.7788 12.9946 32.1228 13.128 31.3975 13.128C30.5228 13.128 29.7442 12.9413 29.0615 12.568C28.3788 12.1946 27.8455 11.6613 27.4615 10.968C27.0775 10.2746 26.8855 9.46396 26.8855 8.53596C26.8855 7.60796 27.0722 6.79729 27.4455 6.10396C27.8295 5.41063 28.3628 4.87729 29.0455 4.50396C29.7282 4.13063 30.5122 3.94396 31.3975 3.94396C32.2615 3.94396 33.0295 4.12529 33.7015 4.48796C34.3735 4.85063 34.8962 5.36796 35.2695 6.03996C35.6535 6.71196 35.8455 7.49596 35.8455 8.39196ZM33.0455 7.67196C33.0455 7.20263 32.8855 6.82929 32.5655 6.55196C32.2455 6.27463 31.8455 6.13596 31.3655 6.13596C30.9068 6.13596 30.5175 6.26929 30.1975 6.53596C29.8882 6.80263 29.6962 7.18129 29.6215 7.67196H33.0455Z" fill="#FFD723"/>
<path d="M42.2649 10.68V13H40.8729C39.8809 13 39.1075 12.76 38.5529 12.28C37.9982 11.7893 37.7209 10.9946 37.7209 9.89596V6.34396H36.6329V4.07196H37.7209V1.89596H40.4569V4.07196H42.2489V6.34396H40.4569V9.92796C40.4569 10.1946 40.5209 10.3866 40.6489 10.504C40.7769 10.6213 40.9902 10.68 41.2889 10.68H42.2649Z" fill="#FFD723"/>
<path d="M48.5555 3.14396C48.0755 3.14396 47.6808 3.00529 47.3715 2.72796C47.0728 2.43996 46.9235 2.08796 46.9235 1.67196C46.9235 1.24529 47.0728 0.893294 47.3715 0.61596C47.6808 0.32796 48.0755 0.18396 48.5555 0.18396C49.0248 0.18396 49.4088 0.32796 49.7075 0.61596C50.0168 0.893294 50.1715 1.24529 50.1715 1.67196C50.1715 2.08796 50.0168 2.43996 49.7075 2.72796C49.4088 3.00529 49.0248 3.14396 48.5555 3.14396ZM49.9155 4.07196V13H47.1795V4.07196H49.9155Z" fill="#FFD723"/>
<path d="M57.3382 3.97596C58.3836 3.97596 59.2156 4.31729 59.8343 4.99996C60.4636 5.67196 60.7783 6.59996 60.7783 7.78396V13H58.0583V8.15196C58.0583 7.55463 57.9036 7.09063 57.5942 6.75996C57.2849 6.42929 56.8689 6.26396 56.3462 6.26396C55.8236 6.26396 55.4076 6.42929 55.0983 6.75996C54.7889 7.09063 54.6343 7.55463 54.6343 8.15196V13H51.8983V4.07196H54.6343V5.25596C54.9116 4.86129 55.2849 4.55196 55.7542 4.32796C56.2236 4.09329 56.7516 3.97596 57.3382 3.97596Z" fill="#FFD723"/>
<path d="M71.0461 10.68V13H69.6541C68.6621 13 67.8888 12.76 67.3341 12.28C66.7795 11.7893 66.5021 10.9946 66.5021 9.89596V6.34396H65.4141V4.07196H66.5021V1.89596H69.2381V4.07196H71.0301V6.34396H69.2381V9.92796C69.2381 10.1946 69.3021 10.3866 69.4301 10.504C69.5581 10.6213 69.7715 10.68 70.0701 10.68H71.0461Z" fill="#FFD723"/>
<path d="M76.6341 13.128C75.7595 13.128 74.9701 12.9413 74.2661 12.568C73.5728 12.1946 73.0235 11.6613 72.6181 10.968C72.2235 10.2746 72.0261 9.46396 72.0261 8.53596C72.0261 7.61863 72.2288 6.81329 72.6341 6.11996C73.0395 5.41596 73.5941 4.87729 74.2981 4.50396C75.0021 4.13063 75.7915 3.94396 76.6661 3.94396C77.5408 3.94396 78.3301 4.13063 79.0341 4.50396C79.7381 4.87729 80.2928 5.41596 80.6981 6.11996C81.1035 6.81329 81.3061 7.61863 81.3061 8.53596C81.3061 9.45329 81.0981 10.264 80.6821 10.968C80.2768 11.6613 79.7168 12.1946 79.0021 12.568C78.2981 12.9413 77.5088 13.128 76.6341 13.128ZM76.6341 10.76C77.1568 10.76 77.5995 10.568 77.9621 10.184C78.3355 9.79996 78.5221 9.25063 78.5221 8.53596C78.5221 7.82129 78.3408 7.27196 77.9781 6.88796C77.6261 6.50396 77.1888 6.31196 76.6661 6.31196C76.1328 6.31196 75.6901 6.50396 75.3381 6.88796C74.9861 7.26129 74.8101 7.81063 74.8101 8.53596C74.8101 9.25063 74.9808 9.79996 75.3221 10.184C75.6741 10.568 76.1115 10.76 76.6341 10.76Z" fill="#FFD723"/>
<path d="M91.5736 4.07196V13H88.8376V11.784C88.5603 12.1786 88.1816 12.4986 87.7016 12.744C87.2323 12.9786 86.7096 13.096 86.1336 13.096C85.451 13.096 84.8483 12.9466 84.3256 12.648C83.803 12.3386 83.3976 11.896 83.1096 11.32C82.8216 10.744 82.6776 10.0666 82.6776 9.28796V4.07196H85.3976V8.91996C85.3976 9.51729 85.5523 9.98129 85.8616 10.312C86.171 10.6426 86.587 10.808 87.1096 10.808C87.643 10.808 88.0643 10.6426 88.3736 10.312C88.683 9.98129 88.8376 9.51729 88.8376 8.91996V4.07196H91.5736Z" fill="#FFD723"/>
<path d="M92.9949 8.53596C92.9949 7.60796 93.1815 6.79729 93.5549 6.10396C93.9389 5.41063 94.4669 4.87729 95.1389 4.50396C95.8215 4.13063 96.6002 3.94396 97.4749 3.94396C98.5949 3.94396 99.5282 4.23729 100.275 4.82396C101.032 5.41063 101.528 6.23729 101.763 7.30396H98.8509C98.6055 6.62129 98.1309 6.27996 97.4269 6.27996C96.9255 6.27996 96.5255 6.47729 96.2269 6.87196C95.9282 7.25596 95.7789 7.81063 95.7789 8.53596C95.7789 9.26129 95.9282 9.82129 96.2269 10.216C96.5255 10.6 96.9255 10.792 97.4269 10.792C98.1309 10.792 98.6055 10.4506 98.8509 9.76796H101.763C101.528 10.8133 101.032 11.6346 100.275 12.232C99.5175 12.8293 98.5842 13.128 97.4749 13.128C96.6002 13.128 95.8215 12.9413 95.1389 12.568C94.4669 12.1946 93.9389 11.6613 93.5549 10.968C93.1815 10.2746 92.9949 9.46396 92.9949 8.53596Z" fill="#FFD723"/>
<path d="M108.714 3.97596C109.738 3.97596 110.56 4.31729 111.178 4.99996C111.797 5.67196 112.106 6.59996 112.106 7.78396V13H109.386V8.15196C109.386 7.55463 109.232 7.09063 108.922 6.75996C108.613 6.42929 108.197 6.26396 107.674 6.26396C107.152 6.26396 106.736 6.42929 106.426 6.75996C106.117 7.09063 105.962 7.55463 105.962 8.15196V13H103.226V1.15996H105.962V5.27196C106.24 4.87729 106.618 4.56263 107.098 4.32796C107.578 4.09329 108.117 3.97596 108.714 3.97596Z" fill="#FFD723"/>
<path d="M5.71875 14.6H14.2564V15.4H5.71875V14.6Z" fill="#FFD723"/>
<path d="M14.25 14.6H113.018V15.4H14.25V14.6Z" fill="#FFD723"/>
</svg>
